<svg width="135" height="50" viewBox="0 0 135 50" fill="none" xmlns="http://www.w3.org/2000/svg">
<g clip-path="url(#clip0_15_154)">
<path d="M97.3286 41.0572C105.91 41.0572 112.866 34.1299 112.866 25.5846C112.866 17.0393 105.91 10.112 97.3286 10.112C88.7475 10.112 81.7913 17.0393 81.7913 25.5846C81.7913 34.1299 88.7475 41.0572 97.3286 41.0572Z" fill="#F6C945"/>
<path d="M25.7143 10.5651L16.9269 30.5879C16.4473 31.7009 15.5374 34.1729 15.5374 34.1729C15.5374 34.1729 14.8698 32.1933 14.2071 30.7701L4.93516 10.5602H0.148376L13.4159 38.6787L12.7484 40.0429C10.7506 44.3715 8.7478 45.2923 5.53846 45.2923V49.7488C8.99011 49.7488 13.1687 49.2466 16.378 42.1406L30.4269 10.5651H25.7143Z" fill="#6201D1"/>
<path d="M59.0637 25.4517C59.0637 16.8635 52.828 9.94467 44.9555 9.94467C36.539 9.94467 30.1154 16.9275 30.1154 25.6438C30.1154 35.1578 37.2066 41.2788 45.5637 41.2788C49.6236 41.2788 53.5599 39.8557 56.7099 37.3245L54.7121 33.8626C52.289 35.9013 48.961 37.0734 45.6231 37.0734C40.1736 37.0734 35.6341 33.3012 34.9071 27.3082H58.95C58.9451 27.2492 59.0637 26.3234 59.0637 25.4517ZM34.9071 23.7233C35.5747 18.1045 39.694 14.1501 44.7132 14.1501C49.861 14.1501 54.0445 18.1636 54.5242 23.7233H34.9071Z" fill="#6201D1"/>
<path d="M134.58 39.0481C133.432 39.8508 131.009 41.274 127.8 41.274C126.401 41.274 125.154 41.0918 124.081 40.6683C121.154 39.5554 119.502 36.7878 119.502 31.6319V14.4506H115.081V10.5553H119.482V0.504547H124.081V3.21299L124.101 3.20807V10.5553H134.159V14.4506H124.101V31.755C124.101 35.8916 125.862 37.0734 128.22 37.0734C130.95 37.0734 133.062 35.4041 133.062 35.4041L134.58 39.0481Z" fill="#6201D1"/>
<path d="M67.584 0.504547H62.9802V41.2789H67.584V0.504547Z" fill="#6201D1"/>
<path d="M76.7917 0.504547H72.1879V41.2789H76.7917V0.504547Z" fill="#6201D1"/>
</g>
<defs>
<clipPath id="clip0_15_154">
<rect width="135" height="49.7369" fill="white" transform="translate(0 0.263123)"/>
</clipPath>
</defs>
</svg>
